<!DOCTYPE svg PUBLIC "-//W3C//DTD SVG 1.1//EN" "http://www.w3.org/Graphics/SVG/1.1/DTD/svg11.dtd">
<!-- Uploaded to: SVG Repo, www.svgrepo.com, Transformed by: SVG Repo Mixer Tools -->
<svg version="1.1" id="Layer_1" xmlns="http://www.w3.org/2000/svg" xmlns:xlink="http://www.w3.org/1999/xlink" viewBox="-20.16 -20.16 544.32 544.32" xml:space="preserve" width="800px" height="800px" fill="#000000">
<g id="SVGRepo_bgCarrier" stroke-width="0"/>
<g id="SVGRepo_tracerCarrier" stroke-linecap="round" stroke-linejoin="round"/>
<g id="SVGRepo_iconCarrier"> <circle style="fill:#84DBFF;" cx="252" cy="252" r="252"/> <path style="fill:#54C0EB;" d="M46.4,397.6C92,461.9,167.1,504,252,504s160-42.1,205.6-106.4H46.4z"/> <rect x="196.9" y="348.1" style="fill:#2B3B4E;" width="110.2" height="41"/> <path style="fill:#324A5E;" d="M427.6,353.4H76.4c-1.8,0-3.2-1.4-3.2-3.2V132.1c0-1.8,1.4-3.2,3.2-3.2h351.1c1.8,0,3.2,1.4,3.2,3.2 v218.1C430.8,351.9,429.4,353.4,427.6,353.4z"/> <rect x="90.7" y="146.4" style="fill:#CED5E0;" width="322.5" height="176.7"/> <rect x="174.6" y="380" style="fill:#324A5E;" width="154.9" height="17.8"/> <g> <circle style="fill:#FFD05B;" cx="406.9" cy="338.1" r="6.4"/> <circle style="fill:#FFD05B;" cx="386.4" cy="338.1" r="6.4"/> <circle style="fill:#FFD05B;" cx="365.9" cy="338.1" r="6.4"/> <circle style="fill:#FFD05B;" cx="345.4" cy="338.1" r="6.4"/> </g> </g>
</svg>